<svg xmlns="http://www.w3.org/2000/svg" viewBox="0 0 300 200" role="img" aria-label="Hard-body lure illustration">
  <defs>
    <linearGradient id="lu" x1="0" y1="0" x2="1" y2="0">
      <stop offset="0" stop-color="#0F4C5C"/>
      <stop offset="1" stop-color="#5A7A5B"/>
    </linearGradient>
  </defs>
  <rect width="300" height="200" fill="none"/>
  <ellipse cx="160" cy="100" rx="85" ry="22" fill="url(#lu)"/>
  <path d="M245 100 L 280 80 L 280 120 Z" fill="#1B4B5A"/>
  <circle cx="95" cy="92" r="6" fill="#FAF8F3"/>
  <circle cx="95" cy="92" r="2.5" fill="#0F4C5C"/>
  <path d="M75 100 Q 80 110 75 118" stroke="#0F4C5C" stroke-width="1.5" fill="none"/>
  <path d="M70 100 L 60 100" stroke="#1B4B5A" stroke-width="2"/>
  <g fill="none" stroke="#1B4B5A" stroke-width="1.8">
    <path d="M150 122 L 150 145 Q 150 158 138 158 Q 130 158 130 150" />
    <path d="M150 122 L 150 145 Q 150 158 162 158 Q 170 158 170 150" />
    <path d="M210 122 L 210 145 Q 210 158 198 158 Q 190 158 190 150" />
    <path d="M210 122 L 210 145 Q 210 158 222 158 Q 230 158 230 150" />
  </g>
</svg>
